<mxfile host="app.diagrams.net" agent="Mozilla/5.0 (X11; Ubuntu; Linux x86_64; rv:132.0) Gecko/20100101 Firefox/132.0" version="24.8.4">
  <diagram name="Page-1" id="J7rDumGs1JQAUWj3vMqs">
    <mxGraphModel dx="1434" dy="785" grid="1" gridSize="10" guides="1" tooltips="1" connect="1" arrows="1" fold="1" page="1" pageScale="1" pageWidth="850" pageHeight="1100" math="0" shadow="0">
      <root>
        <mxCell id="0" />
        <mxCell id="1" parent="0" />
        <mxCell id="4O1_tNgMblk9jtR9rV_Z-18" value="" style="rounded=0;whiteSpace=wrap;html=1;fillColor=#fff2cc;strokeColor=#d6b656;" vertex="1" parent="1">
          <mxGeometry x="480" y="280" width="500" height="400" as="geometry" />
        </mxCell>
        <mxCell id="4O1_tNgMblk9jtR9rV_Z-17" value="" style="rounded=0;whiteSpace=wrap;html=1;fillColor=#fff2cc;strokeColor=#d6b656;" vertex="1" parent="1">
          <mxGeometry x="40" y="280" width="320" height="400" as="geometry" />
        </mxCell>
        <mxCell id="4O1_tNgMblk9jtR9rV_Z-4" style="edgeStyle=orthogonalEdgeStyle;rounded=0;orthogonalLoop=1;jettySize=auto;html=1;exitX=0.75;exitY=1;exitDx=0;exitDy=0;entryX=0.5;entryY=0;entryDx=0;entryDy=0;" edge="1" parent="1" source="4O1_tNgMblk9jtR9rV_Z-1" target="4O1_tNgMblk9jtR9rV_Z-3">
          <mxGeometry relative="1" as="geometry" />
        </mxCell>
        <mxCell id="4O1_tNgMblk9jtR9rV_Z-1" value="message" style="rounded=0;whiteSpace=wrap;html=1;fillColor=#ffe6cc;strokeColor=#d79b00;" vertex="1" parent="1">
          <mxGeometry x="80" y="340" width="160" height="60" as="geometry" />
        </mxCell>
        <mxCell id="4O1_tNgMblk9jtR9rV_Z-2" value="00000" style="rounded=0;whiteSpace=wrap;html=1;fillColor=#ffe6cc;strokeColor=#d79b00;" vertex="1" parent="1">
          <mxGeometry x="240" y="340" width="80" height="60" as="geometry" />
        </mxCell>
        <mxCell id="4O1_tNgMblk9jtR9rV_Z-6" value="" style="edgeStyle=orthogonalEdgeStyle;rounded=0;orthogonalLoop=1;jettySize=auto;html=1;" edge="1" parent="1" source="4O1_tNgMblk9jtR9rV_Z-3" target="4O1_tNgMblk9jtR9rV_Z-5">
          <mxGeometry relative="1" as="geometry" />
        </mxCell>
        <mxCell id="4O1_tNgMblk9jtR9rV_Z-3" value="E(k, .)" style="rounded=0;whiteSpace=wrap;html=1;fillColor=#dae8fc;strokeColor=#6c8ebf;" vertex="1" parent="1">
          <mxGeometry x="140" y="460" width="120" height="60" as="geometry" />
        </mxCell>
        <mxCell id="4O1_tNgMblk9jtR9rV_Z-5" value="ciphertext" style="rounded=0;whiteSpace=wrap;html=1;fillColor=#d5e8d4;strokeColor=#82b366;" vertex="1" parent="1">
          <mxGeometry x="80" y="580" width="240" height="60" as="geometry" />
        </mxCell>
        <mxCell id="4O1_tNgMblk9jtR9rV_Z-11" value="" style="edgeStyle=orthogonalEdgeStyle;rounded=0;orthogonalLoop=1;jettySize=auto;html=1;" edge="1" parent="1" source="4O1_tNgMblk9jtR9rV_Z-7" target="4O1_tNgMblk9jtR9rV_Z-8">
          <mxGeometry relative="1" as="geometry" />
        </mxCell>
        <mxCell id="4O1_tNgMblk9jtR9rV_Z-7" value="ciphertext" style="rounded=0;whiteSpace=wrap;html=1;fillColor=#d5e8d4;strokeColor=#82b366;" vertex="1" parent="1">
          <mxGeometry x="520" y="340" width="240" height="60" as="geometry" />
        </mxCell>
        <mxCell id="4O1_tNgMblk9jtR9rV_Z-12" value="" style="edgeStyle=orthogonalEdgeStyle;rounded=0;orthogonalLoop=1;jettySize=auto;html=1;entryX=0.75;entryY=0;entryDx=0;entryDy=0;" edge="1" parent="1" source="4O1_tNgMblk9jtR9rV_Z-8" target="4O1_tNgMblk9jtR9rV_Z-9">
          <mxGeometry relative="1" as="geometry" />
        </mxCell>
        <mxCell id="4O1_tNgMblk9jtR9rV_Z-8" value="D(k, .)" style="rounded=0;whiteSpace=wrap;html=1;fillColor=#dae8fc;strokeColor=#6c8ebf;" vertex="1" parent="1">
          <mxGeometry x="580" y="460" width="120" height="60" as="geometry" />
        </mxCell>
        <mxCell id="4O1_tNgMblk9jtR9rV_Z-9" value="message" style="rounded=0;whiteSpace=wrap;html=1;fillColor=#ffe6cc;strokeColor=#d79b00;" vertex="1" parent="1">
          <mxGeometry x="520" y="580" width="160" height="60" as="geometry" />
        </mxCell>
        <mxCell id="4O1_tNgMblk9jtR9rV_Z-10" value="....." style="rounded=0;whiteSpace=wrap;html=1;fillColor=#ffe6cc;strokeColor=#d79b00;" vertex="1" parent="1">
          <mxGeometry x="680" y="580" width="80" height="60" as="geometry" />
        </mxCell>
        <mxCell id="4O1_tNgMblk9jtR9rV_Z-15" style="edgeStyle=orthogonalEdgeStyle;rounded=0;orthogonalLoop=1;jettySize=auto;html=1;exitX=0;exitY=0.5;exitDx=0;exitDy=0;entryX=0.5;entryY=0;entryDx=0;entryDy=0;dashed=1;" edge="1" parent="1" source="4O1_tNgMblk9jtR9rV_Z-14" target="4O1_tNgMblk9jtR9rV_Z-10">
          <mxGeometry relative="1" as="geometry" />
        </mxCell>
        <mxCell id="4O1_tNgMblk9jtR9rV_Z-14" value="if # 00000, then it&#39;s not authenticated" style="rounded=0;whiteSpace=wrap;html=1;dashed=1;" vertex="1" parent="1">
          <mxGeometry x="830" y="470" width="120" height="60" as="geometry" />
        </mxCell>
        <mxCell id="4O1_tNgMblk9jtR9rV_Z-19" value="Encryption" style="text;html=1;align=center;verticalAlign=middle;whiteSpace=wrap;rounded=0;" vertex="1" parent="1">
          <mxGeometry x="170" y="280" width="60" height="30" as="geometry" />
        </mxCell>
        <mxCell id="4O1_tNgMblk9jtR9rV_Z-20" value="Decryption" style="text;html=1;align=center;verticalAlign=middle;whiteSpace=wrap;rounded=0;" vertex="1" parent="1">
          <mxGeometry x="700" y="280" width="60" height="30" as="geometry" />
        </mxCell>
      </root>
    </mxGraphModel>
  </diagram>
</mxfile>
